<svg xmlns="http://www.w3.org/2000/svg" viewBox="0 0 512 512" role="img" aria-label="돈피하기 아이콘">
  <rect width="512" height="512" rx="112" fill="#fff8e8"/>
  <circle cx="256" cy="256" r="172" fill="#ffd36f"/>
  <circle cx="256" cy="256" r="126" fill="#fffdf7"/>
  <path fill="#28303f" d="M246 116h32v56c34 6 58 26 70 58l-48 18c-7-21-24-32-52-32-24 0-38 9-38 25 0 14 12 22 44 28 65 13 96 40 96 84 0 41-28 70-72 79v56h-32v-54c-48-6-78-31-90-75l50-15c8 29 28 44 61 44 27 0 43-11 43-29 0-16-14-25-50-33-61-12-90-38-90-80 0-39 29-68 76-75v-55z"/>
  <path fill="#ff9cb5" d="M116 126c-26 20-45 47-56 80l47 15c8-23 21-41 40-55l-31-40zm280 0-31 40c19 14 32 32 40 55l47-15c-11-33-30-60-56-80z"/>
</svg>
